<svg width="37" height="38" viewBox="0 0 37 38" fill="none" xmlns="http://www.w3.org/2000/svg">
<path d="M28.2955 14.1756C28.2955 17.4427 27.2861 20.3644 25.2675 22.9143C24.9753 23.2596 25.055 23.4455 25.3472 23.7377C29.0392 27.4297 32.7312 31.1218 36.4233 34.8138C36.742 35.1325 37.0342 35.4513 37.0076 35.9559C36.9279 36.8325 35.9717 37.3106 35.228 36.8059C35.0421 36.6731 34.8827 36.5137 34.7499 36.3544C31.0844 32.6889 27.419 29.0234 23.7535 25.358C23.4347 25.0392 23.2223 25.0392 22.9035 25.3048C14.5632 31.8655 2.18565 27.1907 0.246668 16.8052C-1.21421 8.99614 3.96526 1.5324 11.7743 0.204326C19.5302 -1.12374 26.8877 4.16197 28.1627 11.9976C28.2689 12.7147 28.3486 13.4319 28.2955 14.1756ZM14.1383 26.022C20.6192 26.1282 26.0112 20.7097 26.0378 14.2022C26.0378 8.1993 21.3364 2.32924 14.1914 2.30268C7.49792 2.30268 2.26533 7.56183 2.29189 14.2022C2.34502 21.4269 8.2682 26.1017 14.1383 26.022Z" fill="white"/>
</svg>
