<svg width="27" height="19" viewBox="0 0 27 19" fill="none" xmlns="http://www.w3.org/2000/svg">
<path d="M24.5277 0C20.2557 0 15.9838 0 11.6878 0H2.49597C2.25597 0 2.03997 0.0475594 1.79998 0.118899C0.887988 0.404255 0.287996 1.04631 0 2.04506V16.9312L0.0959987 17.2403C0.455994 18.2866 1.41598 19 2.47197 19C6.14392 19 9.81587 19 13.4878 19C17.1598 19 20.8317 19 24.5037 19C25.8237 19 26.9996 17.8348 26.9996 16.5269C26.9996 11.8423 26.9996 7.18148 26.9996 2.49687C27.0236 1.16521 25.8477 0 24.5277 0ZM24.9357 3.5194V15.4806L23.1357 13.6971C21.7437 12.3179 20.3517 10.9387 18.9597 9.53567C18.9357 9.51189 18.9357 9.51189 18.9117 9.48811L18.9357 9.46433C20.5197 7.91865 22.0797 6.34919 23.6637 4.77972L24.9357 3.5194ZM15.9358 9.48811C15.6238 9.79725 15.3358 10.1064 15.0238 10.4155C14.7118 10.7247 14.3758 11.0576 14.0638 11.3667C13.8718 11.5569 13.6798 11.6521 13.5118 11.6521C13.3438 11.6521 13.1518 11.5569 12.9598 11.3667C10.2239 8.65582 7.4879 5.94493 4.75194 3.23404L3.57595 2.06884H23.3997L15.9358 9.48811ZM3.69595 16.7885C4.07995 16.408 4.46394 16.0513 4.82394 15.6946C6.40791 14.1252 7.96789 12.5795 9.55187 11.01C9.57587 10.9862 9.57587 10.9862 9.59987 10.9862L9.62387 11.01C10.1039 11.5094 10.6319 12.0088 11.1119 12.5081L11.5438 12.9362C12.6958 14.0776 14.3518 14.0776 15.4798 12.9362C16.1278 12.2941 16.7758 11.6521 17.4238 10.9862C19.0317 12.6033 20.6637 14.1965 22.2717 15.8135L23.3997 16.9312H3.57595L3.69595 16.7885ZM8.08789 9.48811C8.08789 9.51189 8.06389 9.51189 8.03989 9.53567C6.47991 11.1051 4.89593 12.6746 3.31196 14.2203L2.06397 15.4568V3.5194L3.33596 4.77972C4.89593 6.34919 6.47991 7.89487 8.03989 9.44055C8.06389 9.46433 8.08789 9.48811 8.08789 9.48811Z" fill="white"/>
</svg>
