<svg width="23" height="23" viewBox="0 0 23 23" fill="none" xmlns="http://www.w3.org/2000/svg">
<path d="M19.2106 13.1634C18.4671 12.4454 17.5797 12.23 16.6204 12.5172C16.0208 12.6847 15.6131 13.0437 15.2293 13.4027C14.8456 13.7856 14.4619 14.1686 14.0781 14.5515L14.0062 14.6233C13.9582 14.5994 13.9102 14.5754 13.8383 14.5276C13.6464 14.4318 13.4546 14.3122 13.2867 14.2164C12.1834 13.4984 11.1522 12.6129 10.1449 11.488C9.30545 10.5546 8.75383 9.78876 8.32213 8.97503C8.84976 8.47242 9.44935 7.89802 9.97698 7.29969C10.6725 6.48595 10.7924 5.33715 10.2648 4.37981C10.0729 4.02081 9.8091 3.73361 9.59325 3.51821C9.30545 3.23101 9.01765 2.94381 8.70586 2.63267C8.17823 2.10614 7.67458 1.60354 7.14695 1.077C6.76322 0.694069 6.23558 0.215401 5.46812 0.0239334L4.50878 0L4.38887 0.0239334C4.02912 0.119667 3.57344 0.287201 3.16572 0.646202C2.3263 1.38814 1.55884 2.20187 0.983237 2.80021C0.383654 3.44641 0.0478877 4.26015 -7.89165e-05 5.21748C-0.0720289 6.22268 0.071871 7.22789 0.431621 8.32882C1.00722 10.1238 1.8946 11.871 3.06979 13.5463C4.55675 15.6764 6.28355 17.5193 8.20222 19.0031C9.8091 20.2716 11.5359 21.3007 13.3586 22.0666C14.8936 22.7128 16.1407 23.0239 17.3878 23.0239C17.4598 23.0239 17.5077 23.0239 17.5797 23.0239C18.6829 23 19.6183 22.5931 20.3618 21.8512C20.8894 21.3247 21.441 20.7742 22.0406 20.1519C23.2398 18.9074 23.3117 17.3517 22.1845 16.155C21.2252 15.102 20.1939 14.0968 19.2106 13.1634ZM8.17823 5.95942C7.86645 6.29449 7.55467 6.60562 7.24288 6.91675L6.90712 7.25182C6.83517 7.32362 6.76322 7.39542 6.66728 7.46722C6.59533 7.53902 6.52338 7.61082 6.45143 7.68262C5.89982 8.23309 5.80388 8.78356 6.09168 9.50156C6.47542 10.411 7.02703 11.2726 7.81848 12.2539C9.13756 13.8574 10.5286 15.1259 12.0875 16.1311C12.4233 16.3465 12.783 16.538 13.1428 16.7294C13.2387 16.7773 13.3346 16.8252 13.4306 16.873C14.0302 17.1842 14.6777 17.1124 15.1814 16.6337C15.2533 16.5619 15.3253 16.4901 15.3972 16.4422L15.4452 16.3944C15.6131 16.2268 15.757 16.0832 15.9248 15.9157C16.2846 15.5567 16.6443 15.1977 17.0041 14.8626C17.2919 14.5994 17.4598 14.5994 17.7236 14.8626L18.0833 15.2216C18.8988 16.0354 19.7622 16.873 20.5776 17.7107C20.7935 17.9261 20.8414 18.0937 20.5776 18.4527C20.5296 18.5245 20.4577 18.5963 20.3857 18.6681C20.2179 18.8356 20.05 19.0031 19.8821 19.1707C19.5703 19.4818 19.2585 19.7929 18.9467 20.128C18.539 20.5827 18.0114 20.7981 17.2919 20.7981C16.5004 20.7742 15.5891 20.5588 14.6537 20.1759C12.6151 19.3621 10.7205 18.2133 9.04163 16.7773C6.57135 14.6712 4.65268 12.23 3.3336 9.50156C2.82995 8.42456 2.49419 7.51509 2.35029 6.60562C2.23037 6.05515 2.15842 5.38502 2.39825 4.78668C2.49419 4.54735 2.63809 4.33195 2.87792 4.09261C3.40555 3.56608 3.93319 3.01561 4.4848 2.48907C4.67667 2.29761 4.82057 2.22581 4.96447 2.22581C5.10837 2.22581 5.25227 2.32154 5.44413 2.51301C6.16363 3.20708 6.85915 3.92508 7.57865 4.64308L8.0823 5.14568C8.13027 5.19355 8.17823 5.24142 8.2262 5.31322C8.39408 5.55255 8.39408 5.72008 8.17823 5.95942Z" fill="white"/>
</svg>
