<svg width="66" height="67" viewBox="0 0 66 67" fill="none" xmlns="http://www.w3.org/2000/svg">
<g clip-path="url(#clip0_2_112)">
<path d="M56.6121 20.3342L51.1111 28.6787L53.3994 30.2212L58.9004 21.8767L56.6121 20.3342Z" fill="#E52521"/>
<path d="M47.9006 20.353L45.6123 21.8955L51.1134 30.24L53.4016 28.6975L47.9006 20.353Z" fill="#E52521"/>
<path d="M45.6121 20.3352L40.1111 28.6797L42.3994 30.2222L47.9004 21.8777L45.6121 20.3352Z" fill="#E52521"/>
<path d="M36.9001 20.353L34.6118 21.8955L40.1129 30.24L42.4012 28.6975L36.9001 20.353Z" fill="#E52521"/>
<path d="M34.6121 20.3361L29.1111 28.6807L31.3994 30.2232L36.9004 21.8786L34.6121 20.3361Z" fill="#E52521"/>
<path d="M25.8996 20.353L23.6113 21.8955L29.1124 30.24L31.4007 28.6975L25.8996 20.353Z" fill="#E52521"/>
<path d="M23.6121 20.3361L18.1111 28.6807L20.3994 30.2232L25.9004 21.8786L23.6121 20.3361Z" fill="#E52521"/>
<path d="M14.8989 20.353L12.6106 21.8955L18.1117 30.24L20.3999 28.6975L14.8989 20.353Z" fill="#E52521"/>
<path d="M16.5 14.165H1.375V16.9458H16.5V14.165Z" fill="#E52521"/>
<path d="M65.8109 30.8495H0V14.7556L24.8187 0L52.6797 19.7263H58.4891L65.8109 30.8495ZM10.8109 28.0687H60.6719L57.0109 22.5071H14.4891L10.8109 28.0687ZM2.75 28.0687H7.51094L13.0109 19.7263H47.8844L24.6813 3.3022L2.75 16.3546V28.0687Z" fill="#E52521"/>
<path d="M29.6368 58.8012L18.6301 64.3662L19.8599 66.8534L30.8666 61.2884L29.6368 58.8012Z" fill="#E52521"/>
<path d="M19.8592 53.2414L18.6294 55.7285L29.6361 61.2935L30.8659 58.8064L19.8592 53.2414Z" fill="#E52521"/>
<path d="M29.6368 47.6782L18.6301 53.2432L19.8599 55.7303L30.8666 50.1653L29.6368 47.6782Z" fill="#E52521"/>
<path d="M19.8597 42.1183L18.6299 44.6055L29.6366 50.1705L30.8664 47.6833L19.8597 42.1183Z" fill="#E52521"/>
<path d="M29.6371 36.5551L18.6304 42.1201L19.8602 44.6073L30.8669 39.0423L29.6371 36.5551Z" fill="#E52521"/>
<path d="M19.8599 30.9953L18.6301 33.4824L29.6368 39.0474L30.8666 36.5603L19.8599 30.9953Z" fill="#E52521"/>
<path d="M31.625 29.459H28.875V66.9998H31.625V29.459Z" fill="#E52521"/>
<path d="M20.625 29.459H17.875V66.9998H20.625V29.459Z" fill="#E52521"/>
<path d="M26.125 1.65137H23.375V21.117H26.125V1.65137Z" fill="#E52521"/>
<path d="M64.625 47.5342H48.125V50.315H64.625V47.5342Z" fill="#E52521"/>
<path d="M66 66.9997H46.75V48.351L56.375 38.6182L66 48.351V66.9997ZM49.5 64.2189H63.25V49.4981L56.375 42.5461L49.5 49.4981V64.2189Z" fill="#E52521"/>
<path d="M57.75 29.459H55V40.5822H57.75V29.459Z" fill="#E52521"/>
</g>
<defs>
<clipPath id="clip0_2_112">
<rect width="66" height="67" fill="white"/>
</clipPath>
</defs>
</svg>
