<?xml version="1.0" encoding="utf-8"?>
<!-- Generator: Adobe Illustrator 24.1.2, SVG Export Plug-In . SVG Version: 6.00 Build 0)  -->
<svg version="1.1" id="Layer_1" xmlns="http://www.w3.org/2000/svg" xmlns:xlink="http://www.w3.org/1999/xlink" x="0px" y="0px"
	 viewBox="0 0 70.04 70.44" style="enable-background:new 0 0 70.04 70.44;" xml:space="preserve">
<style type="text/css">
	.st0{fill:none;stroke:#E52521;stroke-width:3;stroke-miterlimit:10;}
</style>
<g>
	<path class="st0" d="M44.69,23.59c0,5.92,0.01,9.9-0.01,15.82c0,0.66,0.19,0.83,0.78,0.8c1.02-0.05,2.04-0.03,3.06-0.01
		c0.41,0.01,0.57-0.11,0.6-0.58c0.71-10.86,1.56-19.76,2.36-30.61c2.31-0.13,4.58-0.01,6.89-0.06c0.38,0,0.55,0.1,0.57,0.55
		c0.19,3.45,0.41,6.9,0.62,10.34c0.45,7.13,0.93,12.33,1.37,19.46c0.05,0.86,0.08,0.89,0.86,0.89c1.35,0,2.7,0,4.14,0
		c0,3.04,0.01,7.98-0.02,11.01c0,0.54,0.15,0.76,0.67,0.72c0.6,0.11,1.97-0.43,1.95,0.49c-0.01,5.31-0.01,10.62,0,15.93
		c0.04,0.97-1.25,0.39-1.81,0.55c-21.45,0-42.89,0-64.34,0c-0.88,0-0.88,0-0.88-0.93c0-5.09,0.01-15.03-0.01-20.12
		c0-0.65,0.18-0.82,0.78-0.79c1.02,0.05,2.04-0.02,3.06,0.03c0.56,0.03,0.71-0.17,0.7-0.75c-0.02-5.71,0.01-6.56-0.03-12.27
		c-0.01-0.82,0.24-1.3,0.87-1.77c4.08-2.94,8.02-5.99,12.12-8.91c0,3.19,0,6.24,0,9.49c4.34-3.22,8.51-6.32,12.81-9.51
		c0,3.23,0,6.27,0,9.53c4.33-3.21,8.51-6.31,12.7-9.42C44.57,23.52,44.63,23.56,44.69,23.59z M22.46,57.34c0-3.27,0-6.46,0-9.66
		c-3.16-0.15-6.34,0-9.51-0.07c-0.44,0-0.5,0.21-0.5,0.6c0.05,3.04-0.08,6.09,0.05,9.12C15.83,57.34,19.13,57.34,22.46,57.34z
		 M34.93,47.62C34.93,47.62,34.93,47.62,34.93,47.62c-1.46,0-2.91,0.01-4.37-0.01c-0.45-0.01-0.67,0.09-0.66,0.65
		c0.03,2.84,0.02,5.68,0.01,8.52c0,0.45,0.13,0.61,0.57,0.61c2.95-0.01,5.91-0.01,8.86,0c0.44,0,0.57-0.17,0.56-0.62
		c-0.02-2.84-0.02-5.68,0-8.52c0-0.49-0.14-0.65-0.6-0.64C37.84,47.63,36.39,47.62,34.93,47.62z M47.57,57.33c3.34,0,6.6,0,9.89,0
		c0-3.25,0-6.45,0-9.66c-3.32,0-6.6,0-9.89,0C47.57,50.92,47.57,54.1,47.57,57.33z"/>
	<path class="st0" d="M40.16,4.46c2.06,0.87,4.58,2.08,6.46,0.19c2.99-3,6.02-5.15,8.56-0.22C55.12,4.5,55.06,4.57,55,4.64
		c-2-0.39-5.22-3.07-6.63-0.51c-1.39,4.69-6.48,5-8.39,0.51C40.04,4.58,40.1,4.52,40.16,4.46z"/>
</g>
</svg>
