<svg width="67" height="67" viewBox="0 0 67 67" fill="none" xmlns="http://www.w3.org/2000/svg">
<g clip-path="url(#clip0_2_195)">
<path d="M15.354 19.542H6.979V22.3337H15.354V19.542Z" fill="#E52521"/>
<path d="M60.021 19.542H51.646V22.3337H60.021V19.542Z" fill="#E52521"/>
<path d="M41.875 19.542H25.125V22.3337H41.875V19.542Z" fill="#E52521"/>
<path d="M41.875 25.125H25.125V27.9167H41.875V25.125Z" fill="#E52521"/>
<path d="M41.875 30.708H25.125V33.4997H41.875V30.708Z" fill="#E52521"/>
<path d="M41.875 36.292H25.125V39.0837H41.875V36.292Z" fill="#E52521"/>
<path d="M40.4793 43.2705H26.521V46.0622H40.4793V43.2705Z" fill="#E52521"/>
<path d="M60.0208 67H6.97917C3.12318 67 0 63.8768 0 60.0208V15.3542C0 11.4982 3.12318 8.375 6.97917 8.375H8.375V55.8333H6.97917C4.67604 55.8333 2.79167 57.7177 2.79167 60.0208C2.79167 62.324 4.67604 64.2083 6.97917 64.2083H60.0208C62.324 64.2083 64.2083 62.324 64.2083 60.0208C64.2083 57.7177 62.324 55.8333 60.0208 55.8333H58.625V8.375H60.0208C63.8768 8.375 67 11.4982 67 15.3542V60.0208C67 63.8768 63.8768 67 60.0208 67ZM61.4167 53.1812C62.4461 53.3906 63.3883 53.8268 64.2083 54.4375V15.3542C64.2083 13.5396 63.0393 11.9867 61.4167 11.4109V53.1812ZM5.58333 11.4109C3.96068 11.9867 2.79167 13.5396 2.79167 15.3542V54.4375C3.61172 53.8268 4.55391 53.3906 5.58333 53.1812V11.4109Z" fill="#E52521"/>
<path d="M47.4582 12.5625H19.5415V15.3542H47.4582V12.5625Z" fill="#E52521"/>
<path d="M48.8543 55.8333H18.146V13.7315L22.7174 0H44.2655L48.8543 13.7315V55.8333ZM20.9377 53.0417H46.0627V14.1852L42.259 2.79167H24.7413L20.9377 14.1852V53.0417Z" fill="#E52521"/>
<path d="M32.1042 44.667H29.3125V54.4378H32.1042V44.667Z" fill="#E52521"/>
<path d="M37.6877 44.667H34.896V54.4378H37.6877V44.667Z" fill="#E52521"/>
</g>
<defs>
<clipPath id="clip0_2_195">
<rect width="67" height="67" fill="white"/>
</clipPath>
</defs>
</svg>
