<svg width="67" height="63" viewBox="0 0 67 63" fill="none" xmlns="http://www.w3.org/2000/svg">
<path d="M39.0832 1.39551H36.2915V20.9372H39.0832V1.39551Z" fill="white"/>
<path d="M37.9143 22.3333H11.1667C5.00755 22.3333 0 17.3258 0 11.1667C0 5.00755 5.00755 0 11.1667 0H37.9143L47.4583 3.17552V19.1404L37.9143 22.3333ZM11.1667 2.79167C6.54297 2.79167 2.79167 6.54297 2.79167 11.1667C2.79167 15.7904 6.54297 19.5417 11.1667 19.5417H37.4607L44.6667 17.1339V5.19948L37.4607 2.79167H11.1667Z" fill="white"/>
<path d="M54.4373 16.7497H44.6665V5.58301H54.4373C56.7405 5.58301 58.6248 7.46738 58.6248 9.77051V12.5622C58.6248 14.8653 56.7405 16.7497 54.4373 16.7497ZM47.4582 13.958H54.4373C55.205 13.958 55.8332 13.3299 55.8332 12.5622V9.77051C55.8332 9.0028 55.205 8.37467 54.4373 8.37467H47.4582V13.958Z" fill="white"/>
<path d="M66.9998 9.77051H57.229V12.5622H66.9998V9.77051Z" fill="white"/>
<path d="M9.77067 6.97949H6.979V15.3545H9.77067V6.97949Z" fill="white"/>
<path d="M15.3542 5.58301H12.5625V16.7497H15.3542V5.58301Z" fill="white"/>
<path d="M20.9377 5.58301H18.146V16.7497H20.9377V5.58301Z" fill="white"/>
<path d="M29.3125 62.8128H8.375C6.07188 62.8128 4.1875 60.9285 4.1875 58.6253V48.8545H33.5V58.6253C33.5 60.9285 31.6156 62.8128 29.3125 62.8128ZM6.97917 51.6462V58.6253C6.97917 59.393 7.60729 60.0212 8.375 60.0212H29.3125C30.0802 60.0212 30.7083 59.393 30.7083 58.6253V51.6462H6.97917Z" fill="white"/>
<path d="M6.97917 50.2503H4.1875V41.7008C4.1875 37.9495 4.83307 34.2505 6.12422 30.726L9.85807 20.4492L12.4753 21.4089L8.74141 31.6857C7.5724 34.9135 6.97917 38.281 6.97917 41.7008V50.2503Z" fill="white"/>
<path d="M33.5002 50.2504H30.7086V44.6671C30.7086 43.8993 30.0804 43.2712 29.3127 43.2712H19.3674C18.2682 43.2712 17.2213 42.8176 16.4885 42.015C15.7557 41.2124 15.3893 40.1306 15.4765 39.0314C15.7208 36.135 16.3489 33.291 17.3435 30.5691L21.025 20.4668L23.6422 21.4264L19.9606 31.5288C19.0534 34.0238 18.4776 36.6236 18.2507 39.2757C18.2159 39.5897 18.338 39.8863 18.5474 40.1306C18.7567 40.3574 19.0534 40.497 19.3674 40.497H29.3127C31.6159 40.497 33.5002 42.3814 33.5002 44.6845V50.2504Z" fill="white"/>
</svg>
