<svg width="67" height="67" viewBox="0 0 67 67" fill="none" xmlns="http://www.w3.org/2000/svg">
<g clip-path="url(#clip0_2_209)">
<path d="M18.1458 61.4167C15.075 61.4167 12.5625 58.9042 12.5625 55.8333C12.5625 52.7625 15.075 50.25 18.1458 50.25C21.2167 50.25 23.7292 52.7625 23.7292 55.8333C23.7292 58.9042 21.2167 61.4167 18.1458 61.4167ZM18.1458 53.0417C16.6104 53.0417 15.3542 54.2979 15.3542 55.8333C15.3542 57.3687 16.6104 58.625 18.1458 58.625C19.6812 58.625 20.9375 57.3687 20.9375 55.8333C20.9375 54.2979 19.6812 53.0417 18.1458 53.0417Z" fill="#E52521"/>
<path d="M33.5001 61.4167C30.4292 61.4167 27.9167 58.9042 27.9167 55.8333C27.9167 52.7625 30.4292 50.25 33.5001 50.25C36.5709 50.25 39.0834 52.7625 39.0834 55.8333C39.0834 58.9042 36.5709 61.4167 33.5001 61.4167ZM33.5001 53.0417C31.9647 53.0417 30.7084 54.2979 30.7084 55.8333C30.7084 57.3687 31.9647 58.625 33.5001 58.625C35.0355 58.625 36.2917 57.3687 36.2917 55.8333C36.2917 54.2979 35.0355 53.0417 33.5001 53.0417Z" fill="#E52521"/>
<path d="M48.8541 61.4167C45.7833 61.4167 43.2708 58.9042 43.2708 55.8333C43.2708 52.7625 45.7833 50.25 48.8541 50.25C51.9249 50.25 54.4374 52.7625 54.4374 55.8333C54.4374 58.9042 51.9249 61.4167 48.8541 61.4167ZM48.8541 53.0417C47.3187 53.0417 46.0624 54.2979 46.0624 55.8333C46.0624 57.3687 47.3187 58.625 48.8541 58.625C50.3895 58.625 51.6458 57.3687 51.6458 55.8333C51.6458 54.2979 50.3895 53.0417 48.8541 53.0417Z" fill="#E52521"/>
<path d="M18.1458 36.2917C15.075 36.2917 12.5625 33.7792 12.5625 30.7083C12.5625 27.6375 15.075 25.125 18.1458 25.125C21.2167 25.125 23.7292 27.6375 23.7292 30.7083C23.7292 33.7792 21.2167 36.2917 18.1458 36.2917ZM18.1458 27.9167C16.6104 27.9167 15.3542 29.1729 15.3542 30.7083C15.3542 32.2437 16.6104 33.5 18.1458 33.5C19.6812 33.5 20.9375 32.2437 20.9375 30.7083C20.9375 29.1729 19.6812 27.9167 18.1458 27.9167Z" fill="#E52521"/>
<path d="M33.5001 36.2917C30.4292 36.2917 27.9167 33.7792 27.9167 30.7083C27.9167 27.6375 30.4292 25.125 33.5001 25.125C36.5709 25.125 39.0834 27.6375 39.0834 30.7083C39.0834 33.7792 36.5709 36.2917 33.5001 36.2917ZM33.5001 27.9167C31.9647 27.9167 30.7084 29.1729 30.7084 30.7083C30.7084 32.2437 31.9647 33.5 33.5001 33.5C35.0355 33.5 36.2917 32.2437 36.2917 30.7083C36.2917 29.1729 35.0355 27.9167 33.5001 27.9167Z" fill="#E52521"/>
<path d="M48.8541 36.2917C45.7833 36.2917 43.2708 33.7792 43.2708 30.7083C43.2708 27.6375 45.7833 25.125 48.8541 25.125C51.9249 25.125 54.4374 27.6375 54.4374 30.7083C54.4374 33.7792 51.9249 36.2917 48.8541 36.2917ZM48.8541 27.9167C47.3187 27.9167 46.0624 29.1729 46.0624 30.7083C46.0624 32.2437 47.3187 33.5 48.8541 33.5C50.3895 33.5 51.6458 32.2437 51.6458 30.7083C51.6458 29.1729 50.3895 27.9167 48.8541 27.9167Z" fill="#E52521"/>
<path d="M67 41.875H0V33.5H2.79167C4.32708 33.5 5.58333 32.2438 5.58333 30.7083C5.58333 29.1729 4.32708 27.9167 2.79167 27.9167H0V20.606L10.3117 0H56.7057L67 20.606V27.9167H64.2083C62.6729 27.9167 61.4167 29.1729 61.4167 30.7083C61.4167 32.2438 62.6729 33.5 64.2083 33.5H67V41.875ZM2.79167 39.0833H64.2083V36.2917C61.1375 36.2917 58.625 33.7792 58.625 30.7083C58.625 27.6375 61.1375 25.125 64.2083 25.125V21.269L54.9784 2.79167H12.0216L2.79167 21.269V25.125C5.8625 25.125 8.375 27.6375 8.375 30.7083C8.375 33.7792 5.8625 36.2917 2.79167 36.2917V39.0833Z" fill="#E52521"/>
<path d="M65.6041 19.542H1.39575V22.3337H65.6041V19.542Z" fill="#E52521"/>
<path d="M67 67.0003H0V58.6253H2.79167C4.32708 58.6253 5.58333 57.3691 5.58333 55.8337C5.58333 54.2982 4.32708 53.042 2.79167 53.042H0V44.667H67V53.042H64.2083C62.6729 53.042 61.4167 54.2982 61.4167 55.8337C61.4167 57.3691 62.6729 58.6253 64.2083 58.6253H67V67.0003ZM2.79167 64.2087H64.2083V61.417C61.1375 61.417 58.625 58.9045 58.625 55.8337C58.625 52.7628 61.1375 50.2503 64.2083 50.2503V47.4587H2.79167V50.2503C5.8625 50.2503 8.375 52.7628 8.375 55.8337C8.375 58.9045 5.8625 61.417 2.79167 61.417V64.2087Z" fill="#E52521"/>
</g>
<defs>
<clipPath id="clip0_2_209">
<rect width="67" height="67" fill="white"/>
</clipPath>
</defs>
</svg>
