<svg width="62" height="67" viewBox="0 0 62 67" fill="none" xmlns="http://www.w3.org/2000/svg">
<g clip-path="url(#clip0_2_231)">
<path d="M61.4167 39.0833H0V29.3125H11.1667V32.1042H2.79167V36.2917H58.625V32.1042H50.25V29.3125H61.4167V39.0833Z" fill="#E52521"/>
<path d="M44.6667 32.1042H41.875C38.019 32.1042 34.8958 28.981 34.8958 25.125V4.1875C34.8958 3.41979 34.2677 2.79167 33.5 2.79167H27.9167C27.149 2.79167 26.5208 3.41979 26.5208 4.1875V25.125C26.5208 28.981 23.3977 32.1042 19.5417 32.1042H16.75V29.3125H19.5417C21.8448 29.3125 23.7292 27.4281 23.7292 25.125V4.1875C23.7292 1.88438 25.6135 0 27.9167 0H33.5C35.8031 0 37.6875 1.88438 37.6875 4.1875V25.125C37.6875 27.4281 39.5719 29.3125 41.875 29.3125H44.6667V32.1042Z" fill="#E52521"/>
<path d="M6.97917 30.7079H4.1875V29.312C4.1875 23.2751 6.28125 17.3602 10.0674 12.6667C13.8013 8.04303 19.0357 4.78027 24.8109 3.47168L25.4216 6.19355C14.569 8.65371 6.97917 18.1628 6.97917 29.312V30.7079Z" fill="#E52521"/>
<path d="M57.2291 30.7079H54.4374V29.312C54.4374 18.1628 46.8476 8.65371 35.9775 6.19355L36.5882 3.47168C42.3635 4.78027 47.5979 8.04303 51.3317 12.6667C55.1354 17.3602 57.2291 23.2751 57.2291 29.312V30.7079Z" fill="#E52521"/>
<path d="M30.7085 67.0001C29.2254 67.0001 27.7423 66.878 26.2767 66.6163L25.1775 66.4244L24.9332 62.0449C23.0488 61.5389 21.2517 60.7887 19.5592 59.8116L16.2965 62.7428L15.3892 62.0973C12.9465 60.3699 10.8178 58.2587 9.10794 55.816L8.46237 54.9087L11.3936 51.646C10.4165 49.9535 9.66628 48.1564 9.16029 46.272L4.78086 46.0277L4.58893 44.9285C4.32721 43.4629 4.20508 41.9624 4.20508 40.4967V37.7051H6.99674V40.4967C6.99674 41.4564 7.04909 42.416 7.17122 43.3757L11.4111 43.6199L11.6379 44.6668C12.1264 46.935 13.0337 49.0986 14.3074 51.0702L14.8832 51.96L12.0566 55.1181C13.2431 56.6361 14.604 57.997 16.122 59.1835L19.2801 56.3569L20.1699 56.9327C22.1415 58.2064 24.3051 59.0962 26.5733 59.6022L27.6202 59.829L27.8645 64.0689C29.7663 64.3132 31.703 64.3132 33.6048 64.0689L33.8491 59.829L34.896 59.6022C37.1642 59.1137 39.3277 58.2064 41.2993 56.9327L42.1892 56.3569L45.3473 59.1835C46.8652 57.997 48.2262 56.6361 49.4126 55.1181L46.5861 51.96L47.1618 51.0702C48.4355 49.0986 49.3254 46.935 49.8314 44.6668L50.0582 43.6199L54.298 43.3757C54.4202 42.416 54.4725 41.4564 54.4725 40.4967V37.7051H57.2642V40.4967C57.2642 41.9798 57.1421 43.4629 56.8803 44.9285L56.6884 46.0277L52.309 46.272C51.803 48.1564 51.0527 49.9535 50.0757 51.646L53.0069 54.9087L52.3613 55.816C50.634 58.2587 48.5228 60.3874 46.0801 62.0973L45.1728 62.7428L41.91 59.8116C40.2176 60.7887 38.4204 61.5389 36.5361 62.0449L36.2918 66.4244L35.1926 66.6163C33.6746 66.878 32.1915 67.0001 30.7085 67.0001Z" fill="#E52521"/>
<path d="M30.7085 53.0417C23.7817 53.0417 18.146 47.406 18.146 40.4792V37.6875H20.9377V40.4792C20.9377 45.8706 25.3171 50.25 30.7085 50.25C36.0999 50.25 40.4793 45.8706 40.4793 40.4792V37.6875H43.271V40.4792C43.271 47.406 37.6353 53.0417 30.7085 53.0417Z" fill="#E52521"/>
</g>
<defs>
<clipPath id="clip0_2_231">
<rect width="61.4167" height="67" fill="white"/>
</clipPath>
</defs>
</svg>
