<svg width="67" height="67" viewBox="0 0 67 67" fill="none" xmlns="http://www.w3.org/2000/svg">
<path d="M29.3127 66.9997C25.4567 66.9997 22.3335 63.8765 22.3335 60.0205C22.3335 58.1536 23.0663 56.4088 24.3749 55.0828L39.5546 39.9031C39.2405 38.7166 39.066 37.5127 39.066 36.2913C39.066 28.5968 45.3298 22.333 53.0244 22.333C55.153 22.333 57.2119 22.8215 59.166 23.7637L60.9108 24.6187L51.8379 33.6916C51.7681 33.7614 51.6285 33.9359 51.6285 34.1801C51.6285 34.4244 51.7507 34.5989 51.8379 34.6687L54.6296 37.4604C54.6994 37.5301 54.8739 37.6697 55.1181 37.6697C55.3624 37.6697 55.5369 37.5476 55.6067 37.4604L64.6796 28.3874L65.5345 30.1322C66.4942 32.0689 66.9653 34.1278 66.9653 36.2739C66.9653 43.9684 60.7015 50.2322 53.0069 50.2322C51.7856 50.2322 50.5817 50.0752 49.3952 49.7437L34.2155 64.9234C32.9244 66.2669 31.1796 66.9997 29.3127 66.9997ZM53.0418 25.1247C46.8827 25.1247 41.8752 30.1322 41.8752 36.2913C41.8752 37.4952 42.0671 38.6817 42.4684 39.8507L42.7476 40.6708L26.3465 57.0544C25.5614 57.8395 25.1252 58.9038 25.1252 60.0205C25.1252 62.3236 27.0095 64.208 29.3127 64.208C30.4293 64.208 31.4762 63.7718 32.2788 62.9867L48.6624 46.6031L49.4825 46.8822C50.6515 47.2661 51.8379 47.4755 53.0418 47.4755C59.2009 47.4755 64.2085 42.4679 64.2085 36.3088C64.2085 35.2794 64.0689 34.2674 63.7897 33.2903L57.6132 39.4669C56.9502 40.1299 56.0778 40.4963 55.153 40.4963C54.2283 40.4963 53.3384 40.1299 52.6929 39.4669L49.9012 36.6752C49.2382 36.0122 48.8718 35.1398 48.8718 34.215C48.8718 33.2903 49.2382 32.4005 49.9012 31.7549L56.0778 25.5783C55.0832 25.2643 54.0713 25.1247 53.0418 25.1247Z" fill="white"/>
<path d="M30.7083 60.0211C30.3593 60.0211 29.9929 59.8815 29.7138 59.6198C29.1729 59.0789 29.1729 58.1891 29.7138 57.6482L31.1096 56.2523C31.6505 55.7115 32.5403 55.7115 33.0812 56.2523C33.6221 56.7932 33.6221 57.6831 33.0812 58.224L31.6854 59.6198C31.4237 59.8815 31.0573 60.0211 30.7083 60.0211Z" fill="white"/>
<path d="M19.5417 61.4167H0V13.3826L13.3826 0H47.4583V19.5417H44.6667V2.79167H14.5341L2.79167 14.5341V58.625H19.5417V61.4167Z" fill="white"/>
<path d="M15.3543 15.3538H1.396V12.5622H12.5627V1.39551H15.3543V15.3538Z" fill="white"/>
<path d="M23.7293 40.4792C20.6585 40.4792 18.146 37.9667 18.146 34.8958H20.9377C20.9377 36.4312 22.1939 37.6875 23.7293 37.6875C25.2647 37.6875 26.521 36.4312 26.521 34.8958C26.521 33.8315 25.8405 32.8893 24.8285 32.5404L21.7577 31.5109C19.5942 30.7956 18.146 28.7891 18.146 26.5208C18.146 23.45 20.6585 20.9375 23.7293 20.9375C26.8002 20.9375 29.3127 23.45 29.3127 26.5208H26.521C26.521 24.9854 25.2647 23.7292 23.7293 23.7292C22.1939 23.7292 20.9377 24.9854 20.9377 26.5208C20.9377 27.5852 21.6181 28.5273 22.6301 28.8763L25.7009 29.9057C27.8645 30.6211 29.3127 32.6276 29.3127 34.8958C29.3127 37.9667 26.8002 40.4792 23.7293 40.4792Z" fill="white"/>
<path d="M25.1252 18.1455H22.3335V22.333H25.1252V18.1455Z" fill="white"/>
<path d="M25.1252 39.083H22.3335V43.2705H25.1252V39.083Z" fill="white"/>
</svg>
