<svg width="190" height="36" viewBox="0 0 190 36" fill="none" xmlns="http://www.w3.org/2000/svg">
<path d="M20.1074 35.0129V31.5009H21.6624C21.9841 31.5009 22.2254 31.5277 22.3862 31.6081C22.5471 31.6617 22.6811 31.7958 22.7884 31.9298C22.8956 32.0907 22.9224 32.2784 22.9224 32.466C22.9224 32.7073 22.842 32.9218 22.6811 33.1095C22.5203 33.2971 22.279 33.3776 21.9305 33.4312C22.0645 33.4848 22.145 33.5384 22.1986 33.6188C22.3326 33.7529 22.4667 33.8869 22.5739 34.0746L23.1905 35.0398H22.6007L22.145 34.3159C22.0109 34.1014 21.9037 33.9406 21.7964 33.8333C21.716 33.7261 21.6356 33.6457 21.5551 33.592C21.4747 33.5384 21.4211 33.5116 21.3407 33.5116C21.287 33.5116 21.2066 33.4848 21.0726 33.4848H20.5364V35.0398L20.1074 35.0129ZM20.59 33.029H21.582C21.7964 33.029 21.9573 33.0022 22.0913 32.9754C22.1986 32.9218 22.3058 32.8682 22.3594 32.7609C22.4131 32.6537 22.4399 32.5465 22.4399 32.4392C22.4399 32.2784 22.3862 32.1443 22.2522 32.0371C22.145 31.9298 21.9305 31.8762 21.6892 31.8762H20.5632L20.59 33.029ZM25.9519 31.4741H26.4077V33.5116C26.4077 33.8601 26.3809 34.155 26.3005 34.3427C26.22 34.5572 26.086 34.718 25.8715 34.8521C25.657 34.9861 25.3889 35.0398 25.0404 35.0398C24.7187 35.0398 24.4506 34.9861 24.2361 34.8789C24.0216 34.7717 23.8876 34.6108 23.7803 34.3963C23.6999 34.1818 23.6463 33.8869 23.6463 33.5116V31.4741H24.1289V33.5116C24.1289 33.8065 24.1557 34.0478 24.2093 34.1818C24.2629 34.3159 24.3702 34.4499 24.5042 34.5304C24.6383 34.6108 24.7991 34.6376 25.0136 34.6376C25.3621 34.6376 25.6034 34.5572 25.7374 34.3963C25.8715 34.2355 25.9519 33.9406 25.9519 33.5116V31.4741ZM27.0511 33.8601L27.4801 33.8333C27.5069 34.021 27.5605 34.155 27.6141 34.2623C27.6946 34.3695 27.8018 34.4768 27.9627 34.5304C28.1235 34.6108 28.3112 34.6376 28.4988 34.6376C28.6865 34.6376 28.8206 34.6108 28.9814 34.5572C29.1155 34.5036 29.2227 34.4231 29.2763 34.3427C29.3299 34.2623 29.3836 34.155 29.3836 34.0478C29.3836 33.9406 29.3568 33.8333 29.2763 33.7529C29.2227 33.6725 29.1155 33.592 28.9546 33.5384C28.8474 33.5116 28.6597 33.458 28.338 33.3776C28.0163 33.2971 27.775 33.2167 27.6677 33.1631C27.5069 33.0827 27.3728 32.9754 27.2924 32.8414C27.212 32.7073 27.1584 32.5733 27.1584 32.4124C27.1584 32.2247 27.212 32.0639 27.3192 31.903C27.4265 31.7422 27.5605 31.6349 27.7482 31.5545C27.9358 31.4741 28.1503 31.4473 28.3916 31.4473C28.6597 31.4473 28.8742 31.5009 29.0887 31.5813C29.2763 31.6617 29.4372 31.7958 29.5444 31.9566C29.6517 32.1175 29.7053 32.3052 29.7053 32.5197L29.2495 32.5465C29.2227 32.332 29.1423 32.1443 29.0082 32.0371C28.8742 31.9298 28.6597 31.8762 28.3916 31.8762C28.0967 31.8762 27.909 31.9298 27.775 32.0371C27.6409 32.1443 27.5873 32.2784 27.5873 32.4124C27.5873 32.5465 27.6409 32.6537 27.7214 32.7341C27.8018 32.8146 28.0431 32.895 28.4184 32.9754C28.7937 33.0558 29.0618 33.1363 29.1959 33.1899C29.4104 33.2971 29.5444 33.4044 29.6517 33.5384C29.7589 33.6725 29.7857 33.8601 29.7857 34.0478C29.7857 34.2355 29.7321 34.4231 29.6248 34.584C29.5176 34.7449 29.3568 34.8789 29.1691 34.9593C28.9814 35.0398 28.7401 35.0934 28.4988 35.0934C28.1771 35.0934 27.909 35.0398 27.6946 34.9593C27.4801 34.8789 27.3192 34.718 27.1852 34.5304C27.1316 34.3159 27.0511 34.1014 27.0511 33.8601ZM30.3487 33.8601L30.7777 33.8333C30.8045 34.021 30.8581 34.155 30.9117 34.2623C30.9921 34.3695 31.0994 34.4768 31.2602 34.5304C31.4211 34.6108 31.6088 34.6376 31.7964 34.6376C31.9841 34.6376 32.1181 34.6108 32.279 34.5572C32.4131 34.5036 32.5203 34.4231 32.5739 34.3427C32.6275 34.2623 32.6811 34.155 32.6811 34.0478C32.6811 33.9406 32.6543 33.8333 32.5739 33.7529C32.5203 33.6725 32.4131 33.592 32.2522 33.5384C32.145 33.5116 31.9573 33.458 31.6356 33.3776C31.3139 33.2971 31.0726 33.2167 30.9653 33.1631C30.8045 33.0827 30.6704 32.9754 30.59 32.8414C30.5096 32.7073 30.4559 32.5733 30.4559 32.4124C30.4559 32.2247 30.5096 32.0639 30.6168 31.903C30.724 31.7422 30.8581 31.6349 31.0458 31.5545C31.2334 31.4741 31.4479 31.4473 31.6892 31.4473C31.9573 31.4473 32.1718 31.5009 32.3862 31.5813C32.5739 31.6617 32.7348 31.7958 32.842 31.9566C32.9492 32.1175 33.0029 32.3052 33.0029 32.5197L32.5471 32.5465C32.5203 32.332 32.4399 32.1443 32.3058 32.0371C32.1718 31.9298 31.9573 31.8762 31.6892 31.8762C31.3943 31.8762 31.2066 31.9298 31.0726 32.0371C30.9385 32.1443 30.8849 32.2784 30.8849 32.4124C30.8849 32.5465 30.9385 32.6537 31.0189 32.7341C31.0994 32.8146 31.3407 32.895 31.716 32.9754C32.0913 33.0558 32.3594 33.1363 32.4935 33.1899C32.708 33.2971 32.842 33.4044 32.9492 33.5384C33.0565 33.6725 33.0833 33.8601 33.0833 34.0478C33.0833 34.2355 33.0297 34.4231 32.9224 34.584C32.8152 34.7449 32.6543 34.8789 32.4667 34.9593C32.279 35.0398 32.0377 35.0934 31.7964 35.0934C31.4747 35.0934 31.2066 35.0398 30.9921 34.9593C30.7777 34.8789 30.6168 34.718 30.4828 34.5304C30.4023 34.3159 30.3487 34.1014 30.3487 33.8601ZM33.7535 35.0129V31.5009H34.2093V34.584H35.9519V34.9861H33.7535V35.0129ZM36.1128 35.0129L37.4533 31.5009H37.9627L39.3836 35.0129H38.8474L38.4452 33.9406H36.9975L36.6222 35.0129H36.1128ZM37.1315 33.5652H38.338L37.9627 32.6001C37.8554 32.3052 37.775 32.0639 37.7214 31.8762C37.6677 32.1175 37.6141 32.332 37.5337 32.5465L37.1315 33.5652ZM39.7857 35.0129V31.5009H40.2683L42.1181 34.2623V31.5009H42.5739V35.0129H42.0913L40.2415 32.2516V35.0129H39.7857ZM43.3514 35.0129V31.5009H44.5578C44.8259 31.5009 45.0404 31.5277 45.1744 31.5545C45.3889 31.6081 45.5498 31.6886 45.6838 31.7958C45.8715 31.9566 46.0055 32.1443 46.1128 32.3856C46.1932 32.6269 46.2468 32.9218 46.2468 33.2167C46.2468 33.4848 46.22 33.7261 46.1664 33.9406C46.1128 34.155 46.0324 34.3159 45.9251 34.4499C45.8179 34.584 45.7106 34.6912 45.6034 34.7717C45.4962 34.8521 45.3353 34.9057 45.1744 34.9593C45.0136 34.9861 44.8259 35.0129 44.6114 35.0129H43.3514ZM43.8072 34.584H44.5578C44.7991 34.584 44.96 34.5572 45.094 34.5304C45.2281 34.4768 45.3353 34.4231 45.4157 34.3427C45.523 34.2355 45.6034 34.0746 45.6838 33.8869C45.7374 33.6993 45.7643 33.4848 45.7643 33.2167C45.7643 32.8414 45.7106 32.5733 45.5766 32.3588C45.4694 32.1711 45.3085 32.0371 45.1476 31.9566C45.0136 31.903 44.8259 31.8762 44.5578 31.8762H43.8072V34.584Z" fill="white"/>
<path fill-rule="evenodd" clip-rule="evenodd" d="M15.5496 0H0V34.3164H9.54424L15.5496 26.059V0ZM34.5576 0H27.6408V9.46381L34.5576 0ZM24.7989 0H18.5523V21.9571L24.7989 13.4048V0Z" fill="#E52521"/>
<path fill-rule="evenodd" clip-rule="evenodd" d="M52.5194 0H41.0181L20.1602 28.0965H24.0476L40.6159 5.95174L41.5811 28.0965H46.4068L62.1441 8.01609L62.7875 28.0965H74.6374V0H63.4577L53.0824 12.815L52.5194 0ZM175.656 0C183.565 0 189.999 6.43432 189.999 14.3432C189.999 22.252 183.565 28.6863 175.656 28.6863C167.747 28.6863 161.313 22.252 161.313 14.3432C161.313 6.43432 167.72 0 175.656 0ZM175.656 3.43164C181.661 3.43164 186.541 8.31099 186.541 14.3164C186.541 20.3217 181.661 25.2011 175.656 25.2011V3.43164ZM145.629 0H133.163V28.0965H145.656V22.815L146.192 22.1448L151.018 28.0429H163.511L152.144 14.0751L162.6 0H158.712L145.629 17.3995V0ZM122.68 9.81233C124.637 6.83646 127.211 5.12064 130.187 4.23592C130.187 2.81501 130.187 1.42091 130.187 0C127.613 0.831099 125.12 2.06434 122.68 3.83378V0H110.107V28.0697C114.289 28.0697 118.498 28.0697 122.68 28.0697V9.81233ZM92.1441 0C100.053 0 106.487 6.43432 106.487 14.3432C106.487 14.9598 106.46 15.5764 106.38 16.193H102.895H93.5114H92.1441V25.2547C96.2191 25.2547 99.7848 23.0027 101.635 19.7051H105.442C103.324 24.9866 98.1494 28.7131 92.1173 28.7131C84.2084 28.7131 77.7741 22.2788 77.7741 14.37C77.8009 6.43432 84.2352 0 92.1441 0ZM92.1441 12.252H102.841C101.876 7.23861 97.4524 3.43164 92.1441 3.43164V12.252Z" fill="white"/>
</svg>
