<svg width="200" height="40" viewBox="0 0 200 40" fill="none" xmlns="http://www.w3.org/2000/svg">
<g clip-path="url(#clip0_523_242)">
<path d="M20.1074 39.0129V35.5009H21.6624C21.9841 35.5009 22.2254 35.5277 22.3862 35.6081C22.5471 35.6617 22.6811 35.7958 22.7884 35.9298C22.8956 36.0907 22.9224 36.2784 22.9224 36.466C22.9224 36.7073 22.842 36.9218 22.6811 37.1095C22.5203 37.2971 22.279 37.3776 21.9305 37.4312C22.0645 37.4848 22.145 37.5384 22.1986 37.6188C22.3326 37.7529 22.4667 37.8869 22.5739 38.0746L23.1905 39.0398H22.6007L22.145 38.3159C22.0109 38.1014 21.9037 37.9406 21.7964 37.8333C21.716 37.7261 21.6356 37.6457 21.5551 37.592C21.4747 37.5384 21.4211 37.5116 21.3407 37.5116C21.287 37.5116 21.2066 37.4848 21.0726 37.4848H20.5364V39.0398L20.1074 39.0129ZM20.59 37.029H21.582C21.7964 37.029 21.9573 37.0022 22.0913 36.9754C22.1986 36.9218 22.3058 36.8682 22.3594 36.7609C22.4131 36.6537 22.4399 36.5465 22.4399 36.4392C22.4399 36.2784 22.3862 36.1443 22.2522 36.0371C22.145 35.9298 21.9305 35.8762 21.6892 35.8762H20.5632L20.59 37.029ZM25.9519 35.4741H26.4077V37.5116C26.4077 37.8601 26.3809 38.155 26.3005 38.3427C26.22 38.5572 26.086 38.718 25.8715 38.8521C25.657 38.9861 25.3889 39.0398 25.0404 39.0398C24.7187 39.0398 24.4506 38.9861 24.2361 38.8789C24.0216 38.7717 23.8876 38.6108 23.7803 38.3963C23.6999 38.1818 23.6463 37.8869 23.6463 37.5116V35.4741H24.1289V37.5116C24.1289 37.8065 24.1557 38.0478 24.2093 38.1818C24.2629 38.3159 24.3702 38.4499 24.5042 38.5304C24.6383 38.6108 24.7991 38.6376 25.0136 38.6376C25.3621 38.6376 25.6034 38.5572 25.7374 38.3963C25.8715 38.2355 25.9519 37.9406 25.9519 37.5116V35.4741ZM27.0511 37.8601L27.4801 37.8333C27.5069 38.021 27.5605 38.155 27.6141 38.2623C27.6946 38.3695 27.8018 38.4768 27.9627 38.5304C28.1235 38.6108 28.3112 38.6376 28.4988 38.6376C28.6865 38.6376 28.8206 38.6108 28.9814 38.5572C29.1155 38.5036 29.2227 38.4231 29.2763 38.3427C29.3299 38.2623 29.3836 38.155 29.3836 38.0478C29.3836 37.9406 29.3568 37.8333 29.2763 37.7529C29.2227 37.6725 29.1155 37.592 28.9546 37.5384C28.8474 37.5116 28.6597 37.458 28.338 37.3776C28.0163 37.2971 27.775 37.2167 27.6677 37.1631C27.5069 37.0827 27.3728 36.9754 27.2924 36.8414C27.212 36.7073 27.1584 36.5733 27.1584 36.4124C27.1584 36.2247 27.212 36.0639 27.3192 35.903C27.4265 35.7422 27.5605 35.6349 27.7482 35.5545C27.9358 35.4741 28.1503 35.4473 28.3916 35.4473C28.6597 35.4473 28.8742 35.5009 29.0887 35.5813C29.2763 35.6617 29.4372 35.7958 29.5444 35.9566C29.6517 36.1175 29.7053 36.3052 29.7053 36.5197L29.2495 36.5465C29.2227 36.332 29.1423 36.1443 29.0082 36.0371C28.8742 35.9298 28.6597 35.8762 28.3916 35.8762C28.0967 35.8762 27.909 35.9298 27.775 36.0371C27.6409 36.1443 27.5873 36.2784 27.5873 36.4124C27.5873 36.5465 27.6409 36.6537 27.7214 36.7341C27.8018 36.8146 28.0431 36.895 28.4184 36.9754C28.7937 37.0558 29.0618 37.1363 29.1959 37.1899C29.4104 37.2971 29.5444 37.4044 29.6517 37.5384C29.7589 37.6725 29.7857 37.8601 29.7857 38.0478C29.7857 38.2355 29.7321 38.4231 29.6248 38.584C29.5176 38.7449 29.3568 38.8789 29.1691 38.9593C28.9814 39.0398 28.7401 39.0934 28.4988 39.0934C28.1771 39.0934 27.909 39.0398 27.6946 38.9593C27.4801 38.8789 27.3192 38.718 27.1852 38.5304C27.1316 38.3159 27.0511 38.1014 27.0511 37.8601ZM30.3487 37.8601L30.7777 37.8333C30.8045 38.021 30.8581 38.155 30.9117 38.2623C30.9921 38.3695 31.0994 38.4768 31.2602 38.5304C31.4211 38.6108 31.6088 38.6376 31.7964 38.6376C31.9841 38.6376 32.1181 38.6108 32.279 38.5572C32.4131 38.5036 32.5203 38.4231 32.5739 38.3427C32.6275 38.2623 32.6811 38.155 32.6811 38.0478C32.6811 37.9406 32.6543 37.8333 32.5739 37.7529C32.5203 37.6725 32.4131 37.592 32.2522 37.5384C32.145 37.5116 31.9573 37.458 31.6356 37.3776C31.3139 37.2971 31.0726 37.2167 30.9653 37.1631C30.8045 37.0827 30.6704 36.9754 30.59 36.8414C30.5096 36.7073 30.4559 36.5733 30.4559 36.4124C30.4559 36.2247 30.5096 36.0639 30.6168 35.903C30.724 35.7422 30.8581 35.6349 31.0458 35.5545C31.2334 35.4741 31.4479 35.4473 31.6892 35.4473C31.9573 35.4473 32.1718 35.5009 32.3862 35.5813C32.5739 35.6617 32.7348 35.7958 32.842 35.9566C32.9492 36.1175 33.0029 36.3052 33.0029 36.5197L32.5471 36.5465C32.5203 36.332 32.4399 36.1443 32.3058 36.0371C32.1718 35.9298 31.9573 35.8762 31.6892 35.8762C31.3943 35.8762 31.2066 35.9298 31.0726 36.0371C30.9385 36.1443 30.8849 36.2784 30.8849 36.4124C30.8849 36.5465 30.9385 36.6537 31.0189 36.7341C31.0994 36.8146 31.3407 36.895 31.716 36.9754C32.0913 37.0558 32.3594 37.1363 32.4935 37.1899C32.708 37.2971 32.842 37.4044 32.9492 37.5384C33.0565 37.6725 33.0833 37.8601 33.0833 38.0478C33.0833 38.2355 33.0297 38.4231 32.9224 38.584C32.8152 38.7449 32.6543 38.8789 32.4667 38.9593C32.279 39.0398 32.0377 39.0934 31.7964 39.0934C31.4747 39.0934 31.2066 39.0398 30.9921 38.9593C30.7777 38.8789 30.6168 38.718 30.4828 38.5304C30.4023 38.3159 30.3487 38.1014 30.3487 37.8601ZM33.7535 39.0129V35.5009H34.2093V38.584H35.9519V38.9861H33.7535V39.0129ZM36.1128 39.0129L37.4533 35.5009H37.9627L39.3836 39.0129H38.8474L38.4452 37.9406H36.9975L36.6222 39.0129H36.1128ZM37.1315 37.5652H38.338L37.9627 36.6001C37.8554 36.3052 37.775 36.0639 37.7214 35.8762C37.6677 36.1175 37.6141 36.332 37.5337 36.5465L37.1315 37.5652ZM39.7857 39.0129V35.5009H40.2683L42.1181 38.2623V35.5009H42.5739V39.0129H42.0913L40.2415 36.2516V39.0129H39.7857ZM43.3514 39.0129V35.5009H44.5578C44.8259 35.5009 45.0404 35.5277 45.1744 35.5545C45.3889 35.6081 45.5498 35.6886 45.6838 35.7958C45.8715 35.9566 46.0055 36.1443 46.1128 36.3856C46.1932 36.6269 46.2468 36.9218 46.2468 37.2167C46.2468 37.4848 46.22 37.7261 46.1664 37.9406C46.1128 38.155 46.0324 38.3159 45.9251 38.4499C45.8179 38.584 45.7106 38.6912 45.6034 38.7717C45.4962 38.8521 45.3353 38.9057 45.1744 38.9593C45.0136 38.9861 44.8259 39.0129 44.6114 39.0129H43.3514ZM43.8072 38.584H44.5578C44.7991 38.584 44.96 38.5572 45.094 38.5304C45.2281 38.4768 45.3353 38.4231 45.4157 38.3427C45.523 38.2355 45.6034 38.0746 45.6838 37.8869C45.7374 37.6993 45.7643 37.4848 45.7643 37.2167C45.7643 36.8414 45.7106 36.5733 45.5766 36.3588C45.4694 36.1711 45.3085 36.0371 45.1476 35.9566C45.0136 35.903 44.8259 35.8762 44.5578 35.8762H43.8072V38.584Z" fill="white"/>
<path fill-rule="evenodd" clip-rule="evenodd" d="M15.5496 4H0V38.3164H9.54424L15.5496 30.059V4ZM34.5576 4H27.6408V13.4638L34.5576 4ZM24.7989 4H18.5523V25.9571L24.7989 17.4048V4Z" fill="#E52521"/>
<path fill-rule="evenodd" clip-rule="evenodd" d="M52.5194 4H41.0181L20.1602 32.0965H24.0476L40.6159 9.95174L41.5811 32.0965H46.4068L62.1441 12.0161L62.7875 32.0965H74.6374V4H63.4577L53.0824 16.815L52.5194 4ZM175.656 4C183.565 4 189.999 10.4343 189.999 18.3432C189.999 26.252 183.565 32.6863 175.656 32.6863C167.747 32.6863 161.313 26.252 161.313 18.3432C161.313 10.4343 167.72 4 175.656 4ZM175.656 7.43164C181.661 7.43164 186.541 12.311 186.541 18.3164C186.541 24.3217 181.661 29.2011 175.656 29.2011V7.43164ZM145.629 4H133.163V32.0965H145.656V26.815L146.192 26.1448L151.018 32.0429H163.511L152.144 18.0751L162.6 4H158.712L145.629 21.3995V4ZM122.68 13.8123C124.637 10.8365 127.211 9.12064 130.187 8.23592C130.187 6.81501 130.187 5.42091 130.187 4C127.613 4.8311 125.12 6.06434 122.68 7.83378V4H110.107V32.0697C114.289 32.0697 118.498 32.0697 122.68 32.0697V13.8123ZM92.1441 4C100.053 4 106.487 10.4343 106.487 18.3432C106.487 18.9598 106.46 19.5764 106.38 20.193H102.895H93.5114H92.1441V29.2547C96.2191 29.2547 99.7848 27.0027 101.635 23.7051H105.442C103.324 28.9866 98.1494 32.7131 92.1173 32.7131C84.2084 32.7131 77.7741 26.2788 77.7741 18.37C77.8009 10.4343 84.2352 4 92.1441 4ZM92.1441 16.252H102.841C101.876 11.2386 97.4524 7.43164 92.1441 7.43164V16.252Z" fill="white"/>
</g>
<path d="M194.848 12.036C194.248 12.036 193.692 11.928 193.18 11.712C192.668 11.496 192.22 11.196 191.836 10.812C191.452 10.42 191.152 9.968 190.936 9.456C190.728 8.944 190.624 8.392 190.624 7.8C190.624 7.208 190.732 6.656 190.948 6.144C191.164 5.632 191.464 5.184 191.848 4.8C192.232 4.408 192.68 4.104 193.192 3.888C193.712 3.672 194.272 3.564 194.872 3.564C195.472 3.564 196.028 3.672 196.54 3.888C197.06 4.096 197.508 4.392 197.884 4.776C198.268 5.16 198.564 5.608 198.772 6.12C198.988 6.624 199.096 7.176 199.096 7.776C199.096 8.376 198.988 8.936 198.772 9.456C198.556 9.968 198.252 10.42 197.86 10.812C197.476 11.196 197.028 11.496 196.516 11.712C196.004 11.928 195.448 12.036 194.848 12.036ZM196.396 10.224L195.184 8.352H195.832L197.044 10.224H196.396ZM194.836 11.592C195.38 11.592 195.88 11.496 196.336 11.304C196.792 11.104 197.192 10.832 197.536 10.488C197.888 10.144 198.16 9.74 198.352 9.276C198.544 8.804 198.64 8.304 198.64 7.776C198.64 7.24 198.544 6.744 198.352 6.288C198.168 5.832 197.904 5.432 197.56 5.088C197.224 4.744 196.824 4.48 196.36 4.296C195.904 4.104 195.408 4.008 194.872 4.008C194.328 4.008 193.824 4.104 193.36 4.296C192.896 4.488 192.492 4.76 192.148 5.112C191.812 5.456 191.548 5.856 191.356 6.312C191.164 6.768 191.068 7.264 191.068 7.8C191.068 8.328 191.164 8.824 191.356 9.288C191.548 9.744 191.812 10.148 192.148 10.5C192.492 10.844 192.892 11.112 193.348 11.304C193.812 11.496 194.308 11.592 194.836 11.592ZM193.204 10.224V5.376H195.076C195.676 5.376 196.144 5.524 196.48 5.82C196.824 6.108 196.996 6.496 196.996 6.984C196.996 7.496 196.824 7.896 196.48 8.184C196.144 8.472 195.676 8.616 195.076 8.616H193.828V10.224H193.204ZM193.816 8.088H195.04C195.464 8.088 195.792 7.992 196.024 7.8C196.264 7.608 196.384 7.336 196.384 6.984C196.384 6.64 196.264 6.376 196.024 6.192C195.792 6 195.464 5.904 195.04 5.904H193.816V8.088Z" fill="white"/>
<defs>
<clipPath id="clip0_523_242">
<rect width="190" height="35.067" fill="white" transform="translate(0 4)"/>
</clipPath>
</defs>
</svg>
