<svg width="190" height="36" viewBox="0 0 190 36" fill="none" xmlns="http://www.w3.org/2000/svg">
<path d="M20.1074 35.0134V31.5014H21.6624C21.9841 31.5014 22.2254 31.5282 22.3862 31.6086C22.5471 31.6622 22.6812 31.7963 22.7884 31.9303C22.8956 32.0912 22.9224 32.2789 22.9224 32.4665C22.9224 32.7078 22.842 32.9223 22.6812 33.11C22.5203 33.2976 22.279 33.378 21.9305 33.4317C22.0645 33.4853 22.145 33.5389 22.1986 33.6193C22.3326 33.7534 22.4667 33.8874 22.5739 34.0751L23.1905 35.0403H22.6007L22.145 34.3164C22.0109 34.1019 21.9037 33.9411 21.7964 33.8338C21.716 33.7266 21.6356 33.6461 21.5551 33.5925C21.4747 33.5389 21.4211 33.5121 21.3407 33.5121C21.287 33.5121 21.2066 33.4853 21.0726 33.4853H20.5364V35.0403L20.1074 35.0134ZM20.59 33.0295H21.582C21.7964 33.0295 21.9573 33.0027 22.0913 32.9759C22.1986 32.9223 22.3058 32.8687 22.3594 32.7614C22.4131 32.6542 22.4399 32.547 22.4399 32.4397C22.4399 32.2789 22.3862 32.1448 22.2522 32.0376C22.145 31.9303 21.9305 31.8767 21.6892 31.8767H20.5632L20.59 33.0295ZM25.9519 31.4746H26.4077V33.5121C26.4077 33.8606 26.3809 34.1555 26.3005 34.3432C26.22 34.5577 26.086 34.7185 25.8715 34.8526C25.657 34.9866 25.3889 35.0403 25.0404 35.0403C24.7187 35.0403 24.4506 34.9866 24.2361 34.8794C24.0216 34.7722 23.8876 34.6113 23.7803 34.3968C23.6999 34.1823 23.6463 33.8874 23.6463 33.5121V31.4746H24.1289V33.5121C24.1289 33.807 24.1557 34.0483 24.2093 34.1823C24.2629 34.3164 24.3702 34.4504 24.5042 34.5309C24.6383 34.6113 24.7991 34.6381 25.0136 34.6381C25.3621 34.6381 25.6034 34.5577 25.7375 34.3968C25.8715 34.236 25.9519 33.9411 25.9519 33.5121V31.4746ZM27.0511 33.8606L27.4801 33.8338C27.5069 34.0215 27.5605 34.1555 27.6141 34.2628C27.6946 34.37 27.8018 34.4772 27.9627 34.5309C28.1235 34.6113 28.3112 34.6381 28.4989 34.6381C28.6865 34.6381 28.8206 34.6113 28.9814 34.5577C29.1155 34.5041 29.2227 34.4236 29.2763 34.3432C29.33 34.2628 29.3836 34.1555 29.3836 34.0483C29.3836 33.9411 29.3568 33.8338 29.2763 33.7534C29.2227 33.673 29.1155 33.5925 28.9546 33.5389C28.8474 33.5121 28.6597 33.4585 28.338 33.3781C28.0163 33.2976 27.775 33.2172 27.6678 33.1636C27.5069 33.0831 27.3728 32.9759 27.2924 32.8419C27.212 32.7078 27.1584 32.5738 27.1584 32.4129C27.1584 32.2252 27.212 32.0644 27.3192 31.9035C27.4265 31.7427 27.5605 31.6354 27.7482 31.555C27.9359 31.4746 28.1503 31.4478 28.3916 31.4478C28.6597 31.4478 28.8742 31.5014 29.0887 31.5818C29.2763 31.6622 29.4372 31.7963 29.5444 31.9571C29.6517 32.118 29.7053 32.3057 29.7053 32.5201L29.2495 32.547C29.2227 32.3325 29.1423 32.1448 29.0082 32.0376C28.8742 31.9303 28.6597 31.8767 28.3916 31.8767C28.0967 31.8767 27.909 31.9303 27.775 32.0376C27.6409 32.1448 27.5873 32.2789 27.5873 32.4129C27.5873 32.547 27.6409 32.6542 27.7214 32.7346C27.8018 32.815 28.0431 32.8955 28.4184 32.9759C28.7938 33.0563 29.0619 33.1368 29.1959 33.1904C29.4104 33.2976 29.5444 33.4049 29.6517 33.5389C29.7589 33.673 29.7857 33.8606 29.7857 34.0483C29.7857 34.236 29.7321 34.4236 29.6249 34.5845C29.5176 34.7453 29.3568 34.8794 29.1691 34.9598C28.9814 35.0402 28.7401 35.0939 28.4989 35.0939C28.1771 35.0939 27.909 35.0402 27.6946 34.9598C27.4801 34.8794 27.3192 34.7185 27.1852 34.5309C27.1316 34.3164 27.0511 34.1019 27.0511 33.8606ZM30.3487 33.8606L30.7777 33.8338C30.8045 34.0215 30.8581 34.1555 30.9117 34.2628C30.9922 34.37 31.0994 34.4772 31.2603 34.5309C31.4211 34.6113 31.6088 34.6381 31.7964 34.6381C31.9841 34.6381 32.1182 34.6113 32.279 34.5577C32.4131 34.5041 32.5203 34.4236 32.5739 34.3432C32.6275 34.2628 32.6812 34.1555 32.6812 34.0483C32.6812 33.9411 32.6544 33.8338 32.5739 33.7534C32.5203 33.673 32.4131 33.5925 32.2522 33.5389C32.145 33.5121 31.9573 33.4585 31.6356 33.3781C31.3139 33.2976 31.0726 33.2172 30.9653 33.1636C30.8045 33.0831 30.6704 32.9759 30.59 32.8419C30.5096 32.7078 30.456 32.5738 30.456 32.4129C30.456 32.2252 30.5096 32.0644 30.6168 31.9035C30.7241 31.7427 30.8581 31.6354 31.0458 31.555C31.2334 31.4746 31.4479 31.4478 31.6892 31.4478C31.9573 31.4478 32.1718 31.5014 32.3863 31.5818C32.5739 31.6622 32.7348 31.7963 32.842 31.9571C32.9493 32.118 33.0029 32.3057 33.0029 32.5201L32.5471 32.547C32.5203 32.3325 32.4399 32.1448 32.3058 32.0376C32.1718 31.9303 31.9573 31.8767 31.6892 31.8767C31.3943 31.8767 31.2066 31.9303 31.0726 32.0376C30.9385 32.1448 30.8849 32.2789 30.8849 32.4129C30.8849 32.547 30.9385 32.6542 31.019 32.7346C31.0994 32.815 31.3407 32.8955 31.716 32.9759C32.0914 33.0563 32.3594 33.1368 32.4935 33.1904C32.708 33.2976 32.842 33.4049 32.9493 33.5389C33.0565 33.673 33.0833 33.8606 33.0833 34.0483C33.0833 34.236 33.0297 34.4236 32.9225 34.5845C32.8152 34.7453 32.6544 34.8794 32.4667 34.9598C32.279 35.0402 32.0377 35.0939 31.7964 35.0939C31.4747 35.0939 31.2066 35.0402 30.9922 34.9598C30.7777 34.8794 30.6168 34.7185 30.4828 34.5309C30.4023 34.3164 30.3487 34.1019 30.3487 33.8606ZM33.7536 35.0134V31.5014H34.2093V34.5845H35.952V34.9866H33.7536V35.0134ZM36.1128 35.0134L37.4533 31.5014H37.9627L39.3836 35.0134H38.8474L38.4452 33.9411H36.9975L36.6222 35.0134H36.1128ZM37.1316 33.5657H38.338L37.9627 32.6006C37.8554 32.3057 37.775 32.0644 37.7214 31.8767C37.6678 32.118 37.6141 32.3325 37.5337 32.547L37.1316 33.5657ZM39.7857 35.0134V31.5014H40.2683L42.1182 34.2628V31.5014H42.5739V35.0134H42.0914L40.2415 32.252V35.0134H39.7857ZM43.3514 35.0134V31.5014H44.5579C44.826 31.5014 45.0404 31.5282 45.1745 31.555C45.389 31.6086 45.5498 31.689 45.6839 31.7963C45.8715 31.9571 46.0056 32.1448 46.1128 32.3861C46.1932 32.6274 46.2469 32.9223 46.2469 33.2172C46.2469 33.4853 46.2201 33.7266 46.1664 33.9411C46.1128 34.1555 46.0324 34.3164 45.9252 34.4504C45.8179 34.5845 45.7107 34.6917 45.6034 34.7722C45.4962 34.8526 45.3353 34.9062 45.1745 34.9598C45.0136 34.9866 44.826 35.0134 44.6115 35.0134H43.3514ZM43.8072 34.5845H44.5579C44.7991 34.5845 44.96 34.5577 45.0941 34.5309C45.2281 34.4772 45.3353 34.4236 45.4158 34.3432C45.523 34.236 45.6034 34.0751 45.6839 33.8874C45.7375 33.6998 45.7643 33.4853 45.7643 33.2172C45.7643 32.8419 45.7107 32.5738 45.5766 32.3593C45.4694 32.1716 45.3085 32.0376 45.1477 31.9571C45.0136 31.9035 44.826 31.8767 44.5579 31.8767H43.8072V34.5845Z" fill="black"/>
<path fill-rule="evenodd" clip-rule="evenodd" d="M15.5496 0H0V34.3164H9.54425L15.5496 26.059V0ZM34.5577 0H27.6408V9.46382L34.5577 0ZM24.799 0H18.5523V21.9571L24.799 13.4048V0Z" fill="white"/>
<path fill-rule="evenodd" clip-rule="evenodd" d="M52.5199 0H41.0186L20.1606 28.0966H24.048L40.6164 5.95175L41.5816 28.0966H46.4073L62.1446 8.0161L62.7881 28.0966H74.6379V0H63.4583L53.0829 12.815L52.5199 0ZM175.657 0C183.566 0 190 6.43432 190 14.3432C190 22.252 183.566 28.6864 175.657 28.6864C167.748 28.6864 161.314 22.252 161.314 14.3432C161.314 6.43432 167.721 0 175.657 0ZM175.657 3.43164C181.662 3.43164 186.542 8.311 186.542 14.3164C186.542 20.3217 181.662 25.2011 175.657 25.2011V3.43164ZM145.63 0H133.163V28.0966H145.657V22.815L146.193 22.1448L151.019 28.0429H163.512L152.145 14.0751L162.601 0H158.713L145.63 17.3995V0ZM122.681 9.81234C124.638 6.83647 127.212 5.12065 130.188 4.23593C130.188 2.81502 130.188 1.42091 130.188 0C127.614 0.8311 125.121 2.06435 122.681 3.83379V0H110.107V28.0697C114.289 28.0697 118.499 28.0697 122.681 28.0697V9.81234ZM92.1447 0C100.054 0 106.488 6.43432 106.488 14.3432C106.488 14.9598 106.461 15.5764 106.381 16.1931H102.895H93.5119H92.1447V25.2547C96.2197 25.2547 99.7854 23.0027 101.635 19.7051H105.442C103.324 24.9866 98.15 28.7132 92.1179 28.7132C84.209 28.7132 77.7747 22.2788 77.7747 14.37C77.8015 6.43432 84.2358 0 92.1447 0ZM92.1447 12.252H102.842C101.877 7.23862 97.453 3.43164 92.1447 3.43164V12.252Z" fill="black"/>
</svg>
